<svg id="Layer_1" width="200" height="200" data-name="Layer 1" xmlns="http://www.w3.org/2000/svg" viewBox="0 0 513.46 513.44"><defs><style>.cls-1{fill:#115ece;}.cls-2{fill:#fff;}</style></defs><rect class="cls-1" width="513.46" height="513.44" rx="26.03"/><path class="cls-2" d="M109.41,301.64c4.54,1.42,7.33,2.14,10,3.15,28.83,10.92,57.71,21.71,86.4,33,4.7,1.85,9,5.51,12.63,9.17,11.1,11.15,21.62,22.9,32.84,33.92,1.82,1.78,7.48,2.62,9,1.26,13.93-12.4,27.33-25.39,42.69-39.9-25-9.54-46.41-17.77-67.88-25.95-43.53-16.58-87-33.31-130.67-49.52C97.26,264.13,94,260.08,92,252.94,75.44,193.68,70.47,133,69.09,71.84c-.22-9.92,0-19.85,0-31.24l60.72,23.32c39.41,15.14,78.74,30.49,118.31,45.2a26.16,26.16,0,0,0,16.92.17C321.43,88,377.63,66.07,433.91,44.36c3-1.17,6.21-2,10.57-3.48.1,79.71-7.15,157.26-29.89,234.62l-67-25.38c6.92-33.69,13.69-66.62,21-102.18-6.24,2.08-9.57,3.05-12.81,4.3-29.71,11.44-59.29,23.26-89.21,34.13a29.93,29.93,0,0,1-18.87.11c-30.25-10.93-60.15-22.82-90.19-34.35-3.07-1.18-6.21-2.15-11.66-4,2.13,14.29,5.25,26.92,5.59,39.61.46,17.33,9.89,24.09,24.91,29.66,72.56,26.92,144.73,54.91,217,82.55,3,1.16,6,2.61,9.62,4.22a343.17,343.17,0,0,1-43.81,78.44c-26.63,36.08-60,64.85-97.36,89.24-2.48,1.62-7.81,1.7-10.29.11-61.33-39.47-107.91-91.86-137.71-158.74C112.36,310,111.29,306.64,109.41,301.64Z"/></svg>